<svg width="993" height="582" viewBox="0 0 993 582" fill="none" xmlns="http://www.w3.org/2000/svg">
<path d="M132.6 2.8001C132.2 4.26677 131.533 7.06677 131 9.33343C129.667 15.0668 128.2 16.4001 121.533 17.4668C114.333 18.5334 113.933 20.0001 120.6 21.3334C128.067 22.6668 130.067 24.1334 131 28.9334C132.733 37.4668 133.133 38.5334 134.467 36.5334C135.133 35.4668 135.667 33.2001 135.667 31.3334C135.667 25.7334 139.133 22.2668 145.667 21.2001C149 20.8001 151.667 19.8668 151.667 19.3334C151.667 18.8001 149 17.8668 145.667 17.4668C139.133 16.4001 135.667 12.9334 135.667 7.33343C135.667 5.46677 135.133 3.2001 134.467 2.13343C133.533 0.666767 133.133 0.8001 132.6 2.8001Z" fill="#E8D3C5"/>
<path d="M247.667 3.33333C247.667 5.2 246.333 6.66667 243.667 7.73333L239.8 9.46667L243.667 10.9333C246.333 12 247.667 13.3333 247.667 15.2C247.667 16.8 248.333 18 249 18C249.8 18 250.333 16.8 250.333 15.2C250.333 13.3333 251.667 12 254.333 10.9333L258.2 9.46667L254.333 7.73333C251.667 6.66667 250.333 5.2 250.333 3.33333C250.333 1.86667 249.8 0.666666 249 0.666666C248.333 0.666666 247.667 1.86667 247.667 3.33333Z" fill="#E8D3C5"/>
<path d="M391.667 25.2001C391.667 27.0668 390.733 29.4668 389.533 30.5335C388.467 31.7335 386.067 32.6668 384.2 32.6668C379.4 32.6668 380.333 34.9335 385.667 35.8668C389.267 36.5335 390.467 37.6001 391.133 40.4001C392.6 47.4668 393.4 48.1335 394.333 43.6001C395.667 38.0001 397 36.6668 402.6 35.3335C407.133 34.4001 406.467 33.6001 399.4 32.1335C396.6 31.4668 395.533 30.2668 394.867 26.6668C393.933 21.3335 391.667 20.4001 391.667 25.2001Z" fill="#E8D3C5"/>
<path d="M807.667 76.8C797.933 78.4 788.733 83.2 786.6 87.4667C785.267 90.5334 785.4 92.4 787.8 100.133C789.667 106.133 790.333 111.2 789.933 115.067L789.267 120.933L794.467 115.867L799.8 110.667L798.333 114.933C797.533 117.2 795.8 120 794.467 121.2C793.133 122.4 781.267 126.667 768.2 130.667C718.333 145.733 695 154.8 677.133 166.267C670.2 170.8 659.533 180.4 643.667 196.4C630.733 209.333 616.6 223.467 612.067 227.867L603.8 235.733L607.8 228.133C610.067 224 611.533 220.667 611.133 220.667C610.733 220.667 605.133 224.133 598.733 228.267C583.8 238 548.6 255.867 530.2 263.067C513.933 269.467 492.2 275.333 485.133 275.333C482.333 275.333 475.4 274.133 469.667 272.667C451.667 268 434.467 269.867 418.333 278C413.933 280.133 404.733 287.2 397.667 293.6C383.267 306.667 378.467 310.133 370.867 313.2L365.667 315.2L369.533 312.267C371.667 310.667 375 308 376.867 306.267L380.333 303.067L377 304C375.133 304.4 368.2 305.2 361.533 305.6C340.2 306.933 325.533 300.533 308.733 282.667C304.2 277.733 294.6 268.933 287.667 263.067C269.667 248 254.733 240.933 225 233.333C212.2 230 200.867 227.333 199.933 227.333C196.867 227.333 201.267 232.533 208.733 237.6C212.467 240.267 215.667 242.667 215.667 242.933C215.667 243.2 212.2 241.6 207.933 239.467C197 233.867 189.667 225.6 187.533 216.133L185.933 208.533L190.733 203.6C199.267 194.8 201.133 183.6 194.867 178.667L191.267 175.867L196.2 176.4C205 177.467 215.4 171.067 219.133 162.4C223.4 152.533 219.933 138.533 212.067 132.933C201.533 125.467 186.733 126.933 178.867 136.267L175.933 139.733L170.733 135.467C155.133 122.933 129.8 121.6 112.067 132.267C89.5334 145.733 80.2001 166 88.6001 183.333C93.4001 193.333 93.1334 196.8 86.8668 206C81.2668 214.133 81.2668 218.4 86.6001 219.067C89.4001 219.467 90.3334 220.267 90.3334 222.533C90.3334 226.267 92.7334 228.667 96.6001 228.667C100.067 228.667 100.067 228.667 98.4668 233.067C97.4001 235.733 97.6668 236.933 99.8001 238.8C101.133 240 102.333 242.8 102.333 244.933C102.333 255.067 107.8 256.533 118.333 249.2C128.467 242.133 133.8 240.267 140.333 241.333C145.267 242 158.333 248.8 158.333 250.533C158.333 250.933 155.533 250 151.933 248.533C148.467 247.067 142.733 245.467 139 245.067L132.333 244.4L139.4 248C147.8 252.4 155 260.4 165.267 276.933C173 289.467 180.467 301.2 184.6 307.333C186.867 310.533 186.867 310.667 184.333 308.533C182.867 307.333 181 306 180.067 305.467C177.533 304.133 181.933 320.267 186.6 330C192.067 340.933 192.733 350.533 189.667 371.333C187 389.333 182.467 431.733 183.133 432.533C183.4 432.8 184.6 432.267 185.8 431.2C187.4 429.867 187.133 431.2 184.733 436C179.8 445.733 177.933 455.6 177.8 471.333C177.8 484.533 179.933 518.933 181.8 533.067C182.733 539.333 182.733 539.333 185.267 537.067C187.933 534.8 187.933 534.8 187.533 537.2C187.267 538.533 185.267 540.933 183.267 542.533C179.8 545.067 177.667 545.333 162.333 545.333C148.067 545.333 144.867 545.733 142.733 547.6C141.267 549.067 135.133 550.8 128.2 552C120.733 553.333 113.933 555.467 109.667 557.867C103.133 561.6 102.2 561.733 71.6668 563.2C26.2001 565.467 7.00009 567.733 11.1334 570.4C17.5334 574.267 105.933 578.4 226.333 580.267C293.133 581.333 685 581.733 754.333 580.8C878.467 579.067 985.4 574.533 991.533 570.667C994.333 569.067 991.8 567.6 984.733 566.8C973.8 565.6 941.133 563.467 919 562.667C908.067 562.267 891.533 561.6 882.333 561.333C873.133 560.933 837.533 560 803 559.333C755.667 558.267 740.2 557.6 739.8 556.4C739.533 555.467 736.733 552 733.533 548.8L727.933 542.8L728.467 549.333C728.867 554.933 728.733 555.333 727.8 551.733C726.333 546 718.733 536.8 710.733 530.933C702.067 524.667 684.6 514.133 659.4 500.133C636.733 487.6 634.6 487.067 631 494C628.333 499.333 625.933 517.067 626.733 526C627.4 532.267 627.267 532.8 625.933 529.6C624.6 526.267 624.067 526 619.8 526.933C606.067 529.867 580.867 526.933 537 517.333C506.6 510.667 490.333 510 469 514.667C467 515.2 468.2 514.133 471.933 512.133C477.8 508.933 478.067 508.4 479 501.733C481.133 484.133 484.2 470 491 444.4C499 414.667 502.333 396 502.333 381.467V372.267L496.733 373.2C484.6 375.2 479 375.733 479.8 374.8C480.333 374.267 488.733 371.2 498.467 367.867C521.533 360.133 551.133 345.733 569.667 333.333C587.8 321.2 603.133 308.533 632.333 281.333C670.6 245.733 686.2 232.667 708.333 218C714.2 214.133 725 206.267 732.333 200.667C777.533 166.133 833.267 136 909 105.067C921.133 100.133 921.667 99.7334 921.4 96C921 90.1334 912.333 82.9334 902.733 80.2667C898.467 79.0667 889.667 77.4667 883 76.6667C868.467 75.0667 817.933 75.2 807.667 76.8ZM241.533 378.4C242.2 380.533 242.867 380.4 249.8 377.333C259.533 373.067 265.4 373.067 283.8 378C312.733 385.867 323.533 387.6 335.667 386.933C341.933 386.667 349.267 385.333 352.2 384.133C355.933 382.533 356.867 382.533 355.8 383.733C354.6 385.2 356.333 385.867 365.4 387.333C371.4 388.133 379.933 389.467 384.333 390.267C388.733 390.933 393.933 391.2 396.067 390.8L399.667 390V425.067C399.667 471.2 403.267 511.2 410.333 543.867C411.8 550.4 412.867 555.867 412.6 556C412.067 556.533 203.133 559.2 202.733 558.8C202.467 558.533 203.8 555.067 205.533 551.067C216.733 525.867 227.133 474.533 235 405.333C236.867 389.2 238.333 374.8 238.467 373.333C238.467 370.667 238.467 370.667 239.667 373.333C240.333 374.8 241.133 377.067 241.533 378.4Z" fill="#E8D3C5"/>
<path d="M23.2667 97.4668C22.8667 98.9335 22.2 101.733 21.6667 104C20.3334 109.733 18.8667 111.067 12.2 112.133C4.46669 113.2 3.80002 114.8 10.4667 115.867C18.6 117.2 20.7334 118.8 21.8 124.4C22.3334 127.067 23.1334 130.133 23.6667 131.2C24.7334 133.333 25.2667 132 27 123.6C27.9334 118.8 29.9334 117.333 37.4 116C44.0667 114.667 43.6667 113.2 36.3334 112.133C29.8 111.067 26.3334 107.6 26.3334 102C26.3334 100.133 25.8 97.8668 25.1334 96.8001C24.2 95.3335 23.8 95.4668 23.2667 97.4668Z" fill="#E8D3C5"/>
<path d="M530.067 144.933C529.8 147.2 528.6 148.133 526.067 148.4C521.133 148.933 521.267 150.8 526.333 151.733C529.133 152.4 530.333 153.333 530.333 155.333C530.333 158.933 532.733 158.8 533.267 155.067C533.533 152.933 534.867 151.733 537.667 151.2C541.667 150.4 541.4 150 535 148C533.933 147.733 533 146.133 533 144.667C533 141.067 530.6 141.2 530.067 144.933Z" fill="#E8D3C5"/>
<path d="M343.267 149.6C342.867 150.933 342.067 154.667 341.667 158C339.667 170.267 337.4 172.133 321.4 174.667C311.267 176.267 312.733 178.267 325.133 180C328.6 180.533 333.267 182 335.4 183.333C339.4 185.733 340.467 188.533 342.6 202.533C343.4 207.733 346.067 206.133 346.867 199.733C349 185.067 350.467 183.067 361.8 180.667C374.067 178.133 374.733 177.867 373.533 176.667C372.867 176.133 368.733 174.933 364.333 174.133C352.6 172 350.067 169.6 347.667 158.267C345.533 148.133 344.333 145.733 343.267 149.6Z" fill="#E8D3C5"/>
<path d="M8.06671 320.667C7.13337 323.067 5.53337 324.667 3.53337 324.933L0.333374 325.467L3.93337 327.067C6.20004 328 7.93337 330 8.60004 332.267L9.53337 336L10.3334 332.667C10.7334 330.8 12.8667 328.4 15 327.333C18.8667 325.467 18.8667 325.333 15.9334 324.933C13.9334 324.667 12.2 322.933 11.1334 320.667L9.53337 316.8L8.06671 320.667Z" fill="#E8D3C5"/>
</svg>
